HIERARCHY
ROOT Hips
{
	OFFSET 0.000000 0.000000 0.000000
	CHANNELS 6 Xposition Yposition Zposition Zrotation Yrotation Xrotation 
	JOINT LHipJoint
	{
		OFFSET 0.000000 0.000000 0.000000
		CHANNELS 3 Zrotation Yrotation Xrotation
		JOINT LeftUpLeg
		{
			OFFSET 1.363060 -1.794630 0.839290
			CHANNELS 3 Zrotation Yrotation Xrotation
			JOINT LeftLeg
			{
				OFFSET 2.448110 -6.726130 0.000000
				CHANNELS 3 Zrotation Yrotation Xrotation
				JOINT LeftFoot
				{
					OFFSET 2.562200 -7.039590 0.000000
					CHANNELS 3 Zrotation Yrotation Xrotation
					JOINT LeftToeBase
					{
						OFFSET 0.157640 -0.433110 2.322550
						CHANNELS 3 Zrotation Yrotation Xrotation
						End Site
						{
							OFFSET 0.000000 0.000000 0.000000
						}
					}
				}
			}
		}
	}
	JOINT RHipJoint
	{
		OFFSET 0.000000 0.000000 0.000000
		CHANNELS 3 Zrotation Yrotation Xrotation
		JOINT RightUpLeg
		{
			OFFSET -1.305520 -1.794630 0.839290
			CHANNELS 3 Zrotation Yrotation Xrotation
			JOINT RightLeg
			{
				OFFSET -2.542530 -6.985550 0.000000
				CHANNELS 3 Zrotation Yrotation Xrotation
				JOINT RightFoot
				{
					OFFSET -2.568260 -7.056230 0.000000
					CHANNELS 3 Zrotation Yrotation Xrotation
					JOINT RightToeBase
					{
						OFFSET -0.164730 -0.452590 2.363150
						CHANNELS 3 Zrotation Yrotation Xrotation
						End Site
						{
							OFFSET 0.000000 0.000000 0.000000
						}
					}
				}
			}
		}
	}
	JOINT LowerBack
	{
		OFFSET 0.000000 0.000000 0.000000
		CHANNELS 3 Zrotation Yrotation Xrotation
		JOINT Spine
		{
			OFFSET 0.028270 2.035590 -0.193380
			CHANNELS 3 Zrotation Yrotation Xrotation
			JOINT Spine1
			{
				OFFSET 0.056720 2.048850 -0.042750
				CHANNELS 3 Zrotation Yrotation Xrotation
				JOINT Neck
				{
					OFFSET 0.000000 0.000000 0.000000
					CHANNELS 3 Zrotation Yrotation Xrotation
					JOINT Neck1
					{
						OFFSET -0.054170 1.746240 0.172020
						CHANNELS 3 Zrotation Yrotation Xrotation
						JOINT Head
						{
							OFFSET 0.104070 1.761360 -0.123970
							CHANNELS 3 Zrotation Yrotation Xrotation
							End Site
							{
								OFFSET 0.000000 0.000000 0.000000
							}
						}
					}
				}
				JOINT LeftShoulder
				{
					OFFSET 0.000000 0.000000 0.000000
					CHANNELS 3 Zrotation Yrotation Xrotation
					JOINT LeftArm
					{
						OFFSET 3.362410 1.200890 -0.311210
						CHANNELS 3 Zrotation Yrotation Xrotation
						JOINT LeftForeArm
						{
							OFFSET 4.983000 -0.000000 -0.000000
							CHANNELS 3 Zrotation Yrotation Xrotation
							JOINT LeftHand
							{
								OFFSET 3.483560 -0.000000 -0.000000
								CHANNELS 3 Zrotation Yrotation Xrotation
								JOINT LeftFingerBase
								{
									OFFSET 0.000000 0.000000 0.000000
									CHANNELS 3 Zrotation Yrotation Xrotation
									JOINT LeftHandIndex1
									{
										OFFSET 0.715260 -0.000000 -0.000000
										CHANNELS 3 Zrotation Yrotation Xrotation
										End Site
										{
											OFFSET 0.000000 0.000000 0.000000
										}
									}
								}
								JOINT LThumb
								{
									OFFSET 0.000000 0.000000 0.000000
									CHANNELS 3 Zrotation Yrotation Xrotation
									End Site
									{
										OFFSET 0.000000 0.000000 0.000000
									}
								}
							}
						}
					}
				}
				JOINT RightShoulder
				{
					OFFSET 0.000000 0.000000 0.000000
					CHANNELS 3 Zrotation Yrotation Xrotation
					JOINT RightArm
					{
						OFFSET -3.136600 1.374050 -0.404650
						CHANNELS 3 Zrotation Yrotation Xrotation
						JOINT RightForeArm
						{
							OFFSET -5.241900 -0.000000 -0.000000
							CHANNELS 3 Zrotation Yrotation Xrotation
							JOINT RightHand
							{
								OFFSET -3.444170 -0.000000 -0.000000
								CHANNELS 3 Zrotation Yrotation Xrotation
								JOINT RightFingerBase
								{
									OFFSET 0.000000 0.000000 0.000000
									CHANNELS 3 Zrotation Yrotation Xrotation
									JOINT RightHandIndex1
									{
										OFFSET -0.622530 -0.000000 -0.000000
										CHANNELS 3 Zrotation Yrotation Xrotation
										End Site
										{
											OFFSET 0.000000 0.000000 0.000000
										}
									}
								}
								JOINT RThumb
								{
									OFFSET 0.000000 0.000000 0.000000
									CHANNELS 3 Zrotation Yrotation Xrotation
									End Site
									{
										OFFSET 0.000000 0.000000 0.000000
									}
								}
							}
						}
					}
				}
			}
		}
	}
}
MOTION
Frames: 10
Frame Time: 0.008333
1.182349 16.890561 52.695942 176.201203 -5.231851 -156.549379 -10.085051 -5.180387 -0.722583 -8.033162 -5.609526 -28.373903 6.446075 15.869636 48.851901 8.022253 -11.225558 4.901437 0.110400 -2.142000 -5.898300 4.664075 5.195189 -2.550698 8.085252 -5.959891 -44.245223 -19.506117 -20.480810 84.584273 0.555333 -4.721349 19.869018 -1.398200 7.480400 -21.146600 -2.544811 -0.962951 19.000228 0.014314 -1.612808 -4.223867 2.998562 -0.733712 -6.901720 -4.833639 -3.573572 -12.232160 6.716611 -4.683489 -1.303416 2.410200 -2.366600 2.574200 3.470197 -4.652086 0.758684 -77.788938 -7.259181 33.736187 113.807293 -55.773959 -88.094283 -0.644388 -0.900750 -0.066164 23.056782 0.577600 0.677900 -7.125000 0.000000 0.000000 -2.299100 31.660900 0.750700 -3.775641 4.507496 -1.157241 82.049447 -13.042163 30.873877 -24.935096 35.210496 -12.322041 2.386041 2.296438 -7.243346 -21.906443 -7.478729 4.284600 7.125000 0.000000 0.000000 2.091600 -40.316900 0.241600 
1.189991 16.835741 52.370563 176.195340 -5.685891 -156.195565 -10.180154 -4.969794 -0.390791 -7.748975 -6.196529 -27.328302 6.219343 15.627291 48.102798 8.388676 -11.796392 4.703437 0.071200 -1.721900 -4.737700 4.148583 5.310826 -3.112695 7.994629 -5.911297 -47.487118 -20.205936 -20.624372 86.493449 0.693791 -4.988780 19.425950 -1.286100 7.186300 -20.268400 -2.366522 -1.345294 18.987997 0.067483 -2.026804 -4.245663 3.210044 -0.959596 -6.896324 -4.803844 -3.399290 -12.292161 6.743985 -4.503837 -1.519508 2.392400 -2.294400 2.400500 3.503373 -4.671132 0.815728 -77.520248 -9.388487 32.992972 115.622728 -55.119813 -89.650800 -0.657422 -0.907545 -0.501957 23.537281 0.772097 0.783300 -7.125000 0.000000 0.000000 -1.904500 31.886600 0.611400 -3.761065 4.434799 -1.185125 81.937404 -14.194036 30.349218 -24.611501 35.061466 -12.154595 2.431042 2.443719 -8.659219 -22.390851 -7.816680 4.589200 7.125000 0.000000 0.000000 1.602300 -40.812400 0.165500 
1.201287 16.795096 52.024253 176.168155 -6.149341 -156.119043 -10.371043 -4.669144 0.057945 -7.422573 -6.640128 -25.884638 5.819254 15.279705 46.919798 8.710338 -12.184530 4.841586 0.046600 -1.392500 -3.829400 3.720377 5.373597 -3.634395 7.800742 -5.819615 -50.305014 -20.571225 -20.757049 87.645517 0.706957 -4.650741 17.774377 -0.994500 6.346600 -17.793400 -2.263177 -1.668736 19.163505 0.123590 -2.377446 -4.218314 3.481992 -1.175643 -6.710874 -4.780426 -3.272154 -12.594205 6.777058 -4.379598 -1.678687 2.366400 -2.249900 2.331800 3.563344 -4.685332 0.886168 -77.327326 -11.797540 32.357229 117.269364 -54.423014 -91.079337 -0.671625 -0.904285 -0.958166 24.031426 0.691676 0.762500 -7.125000 0.000000 0.000000 -1.487900 31.800900 0.480600 -3.786400 4.351029 -1.209591 81.804036 -15.391619 29.836516 -24.598803 35.181970 -12.223955 2.468339 2.615138 -10.195845 -22.994054 -8.256162 4.986000 7.125000 0.000000 0.000000 1.007800 -41.450200 0.088300 
1.211144 16.760432 51.666647 176.124205 -6.691122 -155.977729 -10.551190 -4.353688 0.529719 -7.080680 -6.959539 -24.512354 5.388736 14.917535 45.647727 9.055002 -12.593360 5.048288 0.032000 -1.155400 -3.176400 3.309604 5.392261 -4.092750 7.632500 -5.794635 -53.045967 -20.788404 -20.873780 88.350788 0.632147 -4.183069 16.601093 -1.071100 6.579200 -18.474400 -2.137543 -2.042446 19.317251 0.203830 -2.781162 -4.243016 3.834359 -1.394918 -6.800876 -4.811262 -3.145596 -12.637414 6.794955 -4.238775 -1.787120 2.333500 -2.196200 2.259800 3.645415 -4.689014 0.944776 -77.285504 -13.791119 31.826677 119.089880 -53.614324 -92.601797 -0.680276 -0.891800 -1.449362 24.386990 0.551077 0.701800 -7.125000 0.000000 0.000000 -1.185800 31.633200 0.387800 -3.823945 4.256351 -1.257489 81.525215 -17.133951 29.609075 -24.864718 35.572541 -12.500444 2.492406 2.656560 -11.321026 -23.529160 -7.862005 4.920500 7.125000 0.000000 0.000000 0.428400 -41.054600 0.041700 
1.222772 16.792881 51.252005 176.217345 -7.191796 -155.761002 -10.767091 -4.016928 1.083894 -6.559582 -7.016841 -23.031057 4.799043 14.449867 43.958202 9.283620 -12.647037 5.720639 0.023000 -0.978300 -2.689000 3.033218 5.411360 -4.517124 7.551606 -5.471192 -55.248260 -20.595587 -21.010712 87.800768 0.605618 -3.891001 15.299588 -1.237300 7.053700 -19.874700 -1.748378 -2.348938 19.180498 0.273101 -3.047843 -4.241577 3.943942 -1.581938 -6.618371 -4.782382 -3.094073 -13.016919 6.812067 -4.186770 -1.801846 2.311100 -2.179800 2.344600 3.784924 -4.672014 1.003097 -77.378492 -15.721139 31.656647 120.825527 -52.772831 -94.008134 -0.688354 -0.853658 -1.419050 24.764524 0.102057 0.482900 -7.125000 0.000000 0.000000 -0.869200 31.101700 0.295300 -4.039195 4.124524 -1.316467 81.427872 -19.473005 29.989080 -26.521815 37.131849 -13.810453 2.515767 2.529395 -11.026292 -24.242624 -6.900211 4.538600 7.125000 0.000000 0.000000 -0.270300 -39.941400 -0.033700 
1.232518 16.783357 50.866490 176.251821 -7.688688 -155.552156 -10.966656 -3.670359 1.613905 -6.054892 -7.315377 -21.601448 4.191110 13.965495 42.264057 9.486676 -12.717124 6.595988 0.015600 -0.807000 -2.217800 2.714431 5.395444 -4.924815 7.379414 -5.267040 -57.666155 -20.446087 -21.137035 87.305702 0.582605 -3.717182 14.568335 -1.310300 7.251000 -20.461000 -1.449519 -2.678433 19.158301 0.342840 -3.366189 -4.253229 4.120521 -1.776727 -6.568987 -4.758108 -2.990834 -13.237284 6.821163 -4.078142 -1.874669 2.280900 -2.139900 2.344400 3.891138 -4.669672 1.065764 -77.303635 -17.571166 31.356762 122.546980 -51.866042 -95.422808 -0.694418 -0.833973 -1.613283 25.125668 -0.230995 0.320100 -7.125000 0.000000 0.000000 -0.570300 30.713700 0.199000 -4.179146 4.018863 -1.368227 81.242577 -21.488187 30.136119 -27.661603 38.188845 -14.759919 2.530387 2.513135 -11.434227 -24.827054 -6.411083 4.388300 7.125000 0.000000 0.000000 -0.835900 -39.411200 -0.115100 
1.241710 16.782914 50.468018 176.300006 -8.173324 -155.325474 -11.174149 -3.306562 2.180657 -5.488284 -7.630363 -20.156904 3.509489 13.421610 40.402174 9.615436 -12.629178 7.823584 0.012600 -0.726200 -1.995800 2.437288 5.364561 -5.308571 7.183581 -5.020535 -59.862611 -20.105914 -21.259348 86.241210 0.537252 -3.523883 14.026381 -1.408800 7.507400 -21.227700 -1.106193 -2.998285 19.094451 0.414566 -3.664078 -4.270233 4.269204 -1.961642 -6.536878 -4.723554 -2.882107 -13.460652 6.813895 -3.960948 -1.929032 2.241900 -2.096200 2.362000 4.008315 -4.669679 1.125853 -77.250310 -19.237343 31.184488 124.263568 -50.896130 -96.806869 -0.700728 -0.809820 -1.718409 25.501517 -0.623806 0.120700 -7.125000 0.000000 0.000000 -0.263900 30.252800 0.095000 -4.347148 3.912931 -1.421542 81.052386 -23.651127 30.435344 -29.180260 39.482183 -16.021851 2.530814 2.477278 -11.674072 -25.356698 -5.843306 4.166800 7.125000 0.000000 0.000000 -1.327500 -38.774500 -0.203600 
1.250127 16.791442 50.057363 176.354162 -8.639590 -155.070848 -11.373135 -2.934481 2.766010 -4.880956 -7.999740 -18.741468 2.808705 12.851294 38.510472 9.668974 -12.408726 9.326949 0.013800 -0.758500 -2.084600 2.196529 5.323188 -5.667074 6.966223 -4.738679 -61.809817 -19.607583 -21.366021 84.723209 0.468625 -3.302072 13.643205 -1.526600 7.801300 -22.112300 -0.726386 -3.314957 18.985331 0.489803 -3.952411 -4.295463 4.397307 -2.139787 -6.534330 -4.673345 -2.752517 -13.667261 6.781288 -3.817676 -1.968766 2.186800 -2.041100 2.386800 4.132658 -4.674405 1.180562 -77.203489 -20.666534 31.135072 125.979094 -49.865214 -98.159372 -0.708025 -0.782112 -1.752072 25.912760 -1.046487 -0.102000 -7.125000 0.000000 0.000000 0.066300 29.752300 -0.024700 -4.530997 3.808798 -1.473870 80.841938 -25.920605 30.869463 -31.051461 40.948651 -17.590845 2.516265 2.425351 -11.796430 -25.800606 -5.190857 3.865700 7.125000 0.000000 0.000000 -1.718900 -38.022500 -0.295400 
1.257990 16.808608 49.634858 176.415642 -9.076932 -154.783013 -11.572260 -2.556403 3.376106 -4.222489 -8.443949 -17.348616 2.063861 12.227613 36.521334 9.619435 -12.001279 11.248504 0.020400 -0.921500 -2.532900 1.992184 5.281291 -6.013590 6.726566 -4.427365 -63.484821 -18.927657 -21.446939 82.685581 0.377078 -3.061721 13.509398 -1.621900 8.029600 -22.804000 -0.319991 -3.628977 18.823709 0.569083 -4.234320 -4.327036 4.497737 -2.314901 -6.542236 -4.469547 -3.215545 -13.853376 6.756763 -3.497260 -1.968198 2.112300 -1.458200 2.427100 4.271259 -4.682966 1.226309 -77.133762 -21.843476 31.200751 127.684237 -48.779377 -99.471975 -0.717208 -0.751866 -1.758614 26.391787 -1.486258 -0.343700 -7.125000 0.000000 0.000000 0.445700 29.226200 -0.171400 -4.707038 3.707260 -1.524959 80.606907 -28.220679 31.402410 -33.227210 42.511985 -19.443695 2.486185 2.371127 -11.884259 -26.134216 -4.511358 3.519800 7.125000 0.000000 0.000000 -1.991800 -37.229400 -0.381000 
1.265632 16.834412 49.200503 176.482249 -9.488790 -154.476710 -11.762963 -2.176557 4.001647 -3.529161 -8.975194 -15.995767 1.313579 11.572939 34.520638 9.462493 -11.407706 13.554552 0.036800 -1.237800 -3.403400 1.821752 5.243821 -6.351282 6.471271 -4.108262 -64.841139 -18.077499 -21.484625 80.189521 0.248090 -2.759089 13.576518 -1.693900 8.197100 -23.314300 0.103234 -3.946458 18.628090 0.652427 -4.520346 -4.363718 4.609512 -2.489006 -6.578075 -4.370852 -3.016074 -14.008947 6.665643 -3.253631 -1.993895 2.016300 -1.351800 2.438200 4.395179 -4.700308 1.266473 -77.025623 -22.732728 31.373323 129.374724 -47.645484 -100.738757 -0.727835 -0.720232 -1.793420 26.943380 -1.937222 -0.603800 -7.125000 0.000000 0.000000 0.877200 28.680100 -0.348600 -4.886496 3.607672 -1.565883 80.331056 -30.498290 32.002908 -35.629260 44.093094 -21.530082 2.441980 2.320167 -11.999939 -26.333570 -3.811140 3.136100 7.125000 0.000000 0.000000 -2.132300 -36.404900 -0.450900 
